<svg version="1.0" xmlns="http://www.w3.org/2000/svg"
 width="360.000000pt" height="360.000000pt" viewBox="0 0 360.000000 360.000000"
 preserveAspectRatio="xMidYMid meet">

<g transform="translate(0.000000,360.000000) scale(0.100000,-0.100000)"
fill="#000000" stroke="none">
<path d="M1288 2428 l-14 -62 -55 -13 -54 -12 -41 46 -42 47 -40 -18 -39 -18
15 -59 15 -60 -39 -34 c-46 -40 -53 -41 -104 -15 -53 27 -65 25 -91 -11 l-22
-31 22 -26 c56 -71 55 -67 30 -122 l-23 -50 -58 0 c-54 0 -59 -2 -68 -26 -20
-53 -13 -67 45 -93 l55 -23 0 -57 0 -56 -55 -30 c-30 -16 -55 -32 -55 -35 0
-3 5 -22 11 -42 l10 -38 63 0 63 0 23 -50 c25 -54 26 -49 -30 -122 l-21 -27
28 -31 29 -32 55 27 55 27 47 -33 c34 -25 45 -39 42 -54 -2 -11 -7 -39 -11
-62 -6 -42 -6 -43 31 -58 42 -18 70 -6 60 25 -4 14 12 64 31 98 1 2 19 -6 41
-18 l38 -21 -32 5 c-27 4 -35 1 -53 -23 -27 -40 -25 -53 4 -18 21 26 27 28 69
22 50 -8 47 -4 73 -107 5 -25 11 -28 48 -28 l43 0 14 61 14 62 55 14 55 14 41
-48 42 -48 36 18 c37 17 37 18 30 62 -6 41 -4 46 17 55 l24 11 -25 -7 c-14 -3
-87 -8 -163 -10 -220 -7 -334 31 -445 151 -93 98 -132 198 -132 332 0 141 54
260 159 356 104 93 215 127 401 123 163 -4 160 -4 170 -30 31 -81 150 -62 150
24 0 60 -67 98 -116 65 -26 -17 -70 -17 -68 0 1 6 5 29 9 52 7 42 6 43 -30 60
l-37 18 -23 -27 c-13 -15 -30 -37 -38 -49 -14 -19 -20 -21 -64 -13 l-48 9 -14
63 -14 62 -43 0 -43 0 -13 -62z m22 -43 l0 -55 -35 0 c-39 0 -48 17 -13 22 18
2 25 12 32 46 5 23 10 42 12 42 2 0 4 -25 4 -55z m245 -34 c-17 -33 -55 -42
-85 -20 -11 8 -7 9 17 5 28 -5 34 -1 54 31 26 42 38 29 14 -16z m-477 -87 c-2
-2 -22 -10 -44 -19 l-39 -16 26 23 c20 18 24 28 18 48 -16 55 -7 63 17 17 14
-27 24 -51 22 -53z m706 20 c22 -22 20 -61 -4 -74 -47 -25 -94 22 -65 66 18
28 46 31 69 8z m-910 -158 l29 -24 -26 -32 c-28 -33 -34 -33 -16 2 9 17 5 27
-21 60 -34 42 -20 39 34 -6z m-81 -242 c18 -6 21 -35 7 -69 -7 -17 -9 -16 -9
11 -1 25 -8 34 -43 52 l-43 22 35 -6 c19 -3 43 -8 53 -10z m50 -281 c8 -45 1
-55 -12 -19 -9 23 -16 26 -58 27 l-48 1 45 13 c65 19 67 19 73 -22z m149 -217
c11 -20 10 -20 -13 -4 -22 15 -27 14 -64 -4 l-40 -19 39 36 c42 37 54 36 78
-9z m668 -134 c0 -7 -4 -10 -10 -7 -5 3 -10 16 -10 28 0 18 2 19 10 7 5 -8 10
-21 10 -28z"/>
<path d="M1302 2150 c-329 -118 -352 -571 -35 -727 68 -34 82 -37 163 -38 69
-1 93 -5 108 -18 54 -49 127 19 81 76 -26 34 -59 34 -90 1 -22 -24 -28 -25
-84 -20 -81 9 -193 64 -241 119 -20 23 -48 67 -63 97 -22 47 -26 68 -26 150 0
77 4 104 22 143 59 127 185 216 314 220 35 1 82 -1 104 -5 l40 -7 -40 14 c-60
20 -190 18 -253 -5z m302 -716 c9 -8 16 -19 16 -24 0 -13 -30 -40 -44 -40 -17
0 -36 21 -36 40 0 19 19 40 36 40 7 0 20 -7 28 -16z"/>
<path d="M1470 1786 l0 -156 149 0 149 0 28 33 27 32 -132 3 -131 3 0 24 c0
25 0 25 98 25 97 0 98 0 120 30 12 16 22 32 22 35 0 3 -54 5 -120 5 -113 0
-120 1 -120 20 0 19 7 20 104 20 l104 0 26 34 c14 19 26 37 26 39 0 2 -79 5
-175 6 l-175 2 0 -155z"/>
<path d="M1911 1903 l-31 -38 147 -3 c150 -3 173 -8 173 -43 0 -32 -34 -39
-184 -39 l-146 0 0 -75 0 -75 45 0 45 0 0 40 0 40 79 0 79 0 35 -41 c34 -39
36 -40 92 -37 l57 3 -41 47 -42 47 29 15 c34 17 42 34 42 82 0 85 -40 105
-216 111 l-132 4 -31 -38z"/>
<path d="M2388 1906 c-16 -19 -28 -37 -28 -40 0 -4 64 -6 143 -6 147 0 167 -5
167 -42 0 -31 -35 -38 -179 -38 l-141 0 0 -75 0 -75 45 0 45 0 0 40 0 40 101
0 c165 0 219 28 219 115 0 86 -59 115 -235 115 l-110 0 -27 -34z"/>
</g>
</svg>